# WaveFront *.obj file (generated by Autodesk ATF)

mtllib curve_left.mtl

g Solid1

v -539.119987 0.000000 -64.113765
v -539.119987 3.100000 -64.113765
v -524.977760 3.000000 -49.971714
v -524.977760 3.100000 -49.971714
v -504.732018 0.000000 -96.321993
v -504.732018 3.100000 -96.321993
v -491.267509 3.000000 -80.885801
v -491.267509 3.100000 -80.885801
v -468.311157 0.000000 -126.212168
v -468.311157 3.100000 -126.212168
v -455.662346 3.000000 -109.597092
v -455.662346 3.100000 -109.597092
v -430.013313 0.000000 -153.656282
v -430.013313 3.100000 -153.656282
v -418.306084 3.000000 -135.989723
v -418.306084 3.100000 -135.989723
v -390.002556 0.000000 -178.536816
v -390.002556 3.100000 -178.536816
v -379.349365 3.000000 -159.957180
v -379.349365 3.100000 -159.957180
v -348.450165 0.000000 -200.747242
v -348.450165 3.100000 -200.747242
v -338.949471 3.000000 -181.402740
v -338.949471 3.100000 -181.402740
v -305.534115 0.000000 -220.192413
v -305.534115 3.100000 -220.192413
v -297.269421 3.000000 -200.239849
v -297.269421 3.100000 -200.239849
v -261.438160 0.000000 -236.789112
v -261.438160 3.100000 -236.789112
v -254.477406 3.000000 -216.392517
v -254.477406 3.100000 -216.392517
v -216.351128 0.000000 -250.466213
v -216.351128 3.100000 -250.466213
v -210.746155 3.000000 -229.795513
v -210.746155 3.100000 -229.795513
v -170.466118 0.000000 -261.165180
v -170.466118 3.100000 -261.165180
v -166.252117 3.000000 -240.394783
v -166.252117 3.100000 -240.394783
v -164.351120 3.000000 310.650539
v -164.351120 3.100000 310.650539
v -150.208893 0.000000 324.792595
v -150.208893 3.100000 324.792595
v -148.973112 3.000000 295.693512
v -148.973112 3.100000 295.693512
v -133.490133 0.000000 310.130463
v -133.490133 3.100000 310.130463
v -131.833897 3.000000 282.792244
v -131.833897 3.100000 282.792244
v -123.979588 0.000000 -268.840199
v -123.979588 3.100000 -268.840199
v -121.174870 3.000000 -248.147545
v -121.174870 3.100000 -248.147545
v -115.000601 0.000000 297.776031
v -115.000601 3.100000 297.776031
v -113.206377 3.000000 272.152176
v -113.206377 3.100000 272.152176
v -95.056667 0.000000 287.940674
v -95.056667 3.100000 287.940674
v -93.387184 3.000000 263.942719
v -93.387184 3.100000 263.942719
v -77.090621 0.000000 -273.458405
v -77.090621 3.100000 -273.458405
v -75.696316 3.000000 -253.022518
v -75.696316 3.100000 -253.022518
v -73.999572 0.000000 280.792694
v -73.999572 3.100000 280.792694
v -72.691913 3.000000 258.294621
v -72.691913 3.100000 258.294621
v -52.189627 0.000000 276.454391
v -52.189627 3.100000 276.454391
v -51.450100 3.000000 255.297813
v -51.450100 3.100000 255.297813
v -30.000000 0.000000 -275.000000
v -30.000000 0.000000 275.000000
v -30.000000 3.000000 -255.000000
v -30.000000 3.000000 255.000000
v -30.000000 3.100000 -275.000000
v -30.000000 3.100000 -255.000000
v -30.000000 3.100000 255.000000
v -30.000000 3.100000 275.000000
v 0.000000 0.000000 -275.000000
v 0.000000 0.000000 275.000000
v 0.000000 3.000000 -255.000000
v 0.000000 3.000000 255.000000
v 0.000000 3.100000 -275.000000
v 0.000000 3.100000 -255.000000
v 0.000000 3.100000 255.000000
v 0.000000 3.100000 275.000000
vt 0.000000 0.300000 0.000000
vt 3.000000 0.300000 0.000000
vt 3.000000 0.310000 0.000000
vt 0.000000 0.310000 0.000000
vt 0.300000 -171.298538 0.000000
vt 0.300000 -175.873215 0.000000
vt 0.300000 -180.447906 0.000000
vt 0.300000 -185.022568 0.000000
vt 0.300000 -189.597244 0.000000
vt 0.300000 -194.171936 0.000000
vt 0.300000 -198.746613 0.000000
vt 0.300000 -203.321274 0.000000
vt 0.300000 -207.895950 0.000000
vt 0.300000 -212.470642 0.000000
vt 0.300000 -217.045319 0.000000
vt 0.300000 -221.619995 0.000000
vt 0.300000 -226.194672 0.000000
vt 0.310000 -226.194672 0.000000
vt 0.310000 -221.619995 0.000000
vt 0.310000 -217.045319 0.000000
vt 0.310000 -212.470642 0.000000
vt 0.310000 -207.895950 0.000000
vt 0.310000 -203.321274 0.000000
vt 0.310000 -198.746613 0.000000
vt 0.310000 -194.171936 0.000000
vt 0.310000 -189.597244 0.000000
vt 0.310000 -185.022568 0.000000
vt 0.310000 -180.447906 0.000000
vt 0.310000 -175.873215 0.000000
vt 0.310000 -171.298538 0.000000
vt -11.251414 23.955999 0.000000
vt -11.097255 19.246939 0.000000
vt -10.635435 14.558042 0.000000
vt -9.867933 9.909389 0.000000
vt -8.798036 5.320887 0.000000
vt -7.430325 0.812185 0.000000
vt -5.770656 -3.597411 0.000000
vt -3.826138 -7.889016 0.000000
vt -1.605096 -12.044254 0.000000
vt 0.882957 -16.045332 0.000000
vt 3.627369 -19.875114 0.000000
vt 6.616386 -23.517202 0.000000
vt 9.837210 -26.955999 0.000000
vt 11.251414 -25.541779 0.000000
vt 8.160006 -22.170750 0.000000
vt 5.288877 -18.610237 0.000000
vt 2.649614 -14.874607 0.000000
vt 0.252868 -10.978936 0.000000
vt -1.891688 -6.938947 0.000000
vt -3.775400 -2.770941 0.000000
vt -5.390666 1.508259 0.000000
vt -6.730966 5.881385 0.000000
vt -7.790893 10.330789 0.000000
vt -8.566170 14.838513 0.000000
vt -9.053665 19.386368 0.000000
vt -9.251414 23.955999 0.000000
vt -9.251414 26.955999 0.000000
vt -11.251414 26.955999 0.000000
vt -0.300000 0.000000 0.000000
vt -0.300000 2.146643 0.000000
vt -0.300000 4.293285 0.000000
vt -0.300000 6.439928 0.000000
vt -0.300000 8.586571 0.000000
vt -0.300000 10.733212 0.000000
vt -0.300000 12.879855 0.000000
vt -0.300000 15.026497 0.000000
vt -0.310000 15.026497 0.000000
vt -0.310000 12.879855 0.000000
vt -0.310000 10.733212 0.000000
vt -0.310000 8.586571 0.000000
vt -0.310000 6.439928 0.000000
vt -0.310000 4.293285 0.000000
vt -0.310000 2.146643 0.000000
vt -0.310000 0.000000 0.000000
vt 0.000000 0.300000 0.000000
vt 3.000000 0.300000 0.000000
vt 3.000000 0.310000 0.000000
vt 0.000000 0.310000 0.000000
vt -1.479321 8.217556 0.000000
vt -3.479321 8.217556 0.000000
vt -3.479321 5.217556 0.000000
vt -3.449540 3.072546 0.000000
vt -3.149859 0.948365 0.000000
vt -2.585049 -1.121163 0.000000
vt -1.764104 -3.103082 0.000000
vt -0.700096 -4.965834 0.000000
vt 0.590030 -6.679755 0.000000
vt 2.085732 -8.217556 0.000000
vt 3.499937 -6.803333 0.000000
vt 2.033725 -5.131457 0.000000
vt 0.798282 -3.282505 0.000000
vt -0.185253 -1.288111 0.000000
vt -0.900051 0.817598 0.000000
vt -1.333881 2.998593 0.000000
vt -1.479321 5.217556 0.000000
vt 0.000000 0.000000 0.000000
vt 55.000000 0.000000 0.000000
vt 55.000000 0.310000 0.000000
vt 53.000000 0.310000 0.000000
vt 53.000000 0.300000 0.000000
vt 2.000000 0.300000 0.000000
vt 2.000000 0.310000 0.000000
vt 0.000000 0.310000 0.000000
vt -27.989630 26.955999 0.000000
vt -27.989630 23.955999 0.000000
vt -27.791880 19.386368 0.000000
vt -27.304384 14.838513 0.000000
vt -26.529108 10.330789 0.000000
vt -25.469181 5.881385 0.000000
vt -24.128880 1.508259 0.000000
vt -22.513615 -2.770941 0.000000
vt -20.629904 -6.938947 0.000000
vt -18.485348 -10.978936 0.000000
vt -16.088602 -14.874607 0.000000
vt -13.449339 -18.610237 0.000000
vt -10.578209 -22.170750 0.000000
vt -7.486801 -25.541779 0.000000
vt 28.575424 10.520889 0.000000
vt 27.079721 12.058689 0.000000
vt 25.789595 13.772611 0.000000
vt 24.725588 15.635363 0.000000
vt 23.904644 17.617281 0.000000
vt 23.339832 19.686810 0.000000
vt 23.040152 21.810989 0.000000
vt 23.010370 23.955999 0.000000
vt 23.010370 26.955999 0.000000
vt 0.000000 0.000000 0.000000
vt 3.000000 0.000000 0.000000
vt 3.000000 0.310000 0.000000
vt 0.000000 0.310000 0.000000
vt 0.000000 -40.055202 0.000000
vt 0.000000 -42.280518 0.000000
vt 0.000000 -44.505825 0.000000
vt 0.000000 -46.731136 0.000000
vt 0.000000 -48.956451 0.000000
vt 0.000000 -51.181763 0.000000
vt 0.000000 -53.407078 0.000000
vt 0.310000 -53.407078 0.000000
vt 0.310000 -51.181763 0.000000
vt 0.310000 -48.956451 0.000000
vt 0.310000 -46.731136 0.000000
vt 0.310000 -44.505825 0.000000
vt 0.310000 -42.280518 0.000000
vt 0.310000 -40.055202 0.000000
vt -0.000000 0.000000 0.000000
vt -0.000000 4.712426 0.000000
vt -0.000000 9.424851 0.000000
vt -0.000000 14.137277 0.000000
vt -0.000000 18.849703 0.000000
vt -0.000000 23.562130 0.000000
vt -0.000000 28.274553 0.000000
vt -0.000000 32.986980 0.000000
vt -0.000000 37.699406 0.000000
vt -0.000000 42.411831 0.000000
vt -0.000000 47.124260 0.000000
vt -0.000000 51.836685 0.000000
vt -0.000000 56.549107 0.000000
vt -0.310000 56.549107 0.000000
vt -0.310000 51.836685 0.000000
vt -0.310000 47.124260 0.000000
vt -0.310000 42.411831 0.000000
vt -0.310000 37.699406 0.000000
vt -0.310000 32.986980 0.000000
vt -0.310000 28.274553 0.000000
vt -0.310000 23.562130 0.000000
vt -0.310000 18.849703 0.000000
vt -0.310000 14.137277 0.000000
vt -0.310000 9.424851 0.000000
vt -0.310000 4.712426 0.000000
vt -0.310000 0.000000 0.000000
vt 0.000000 0.000000 0.000000
vt 3.000000 0.000000 0.000000
vt 3.000000 0.310000 0.000000
vt 0.000000 0.310000 0.000000
vt 53.000000 0.300000 0.000000
vt 2.000000 0.300000 0.000000
vt 2.000000 0.310000 0.000000
vt 0.000000 0.310000 0.000000
vt 0.000000 0.000000 0.000000
vt 55.000000 0.000000 0.000000
vt 55.000000 0.310000 0.000000
vt 53.000000 0.310000 0.000000
vt 29.989630 26.955999 0.000000
vt -25.010370 26.955999 0.000000
vt -25.010370 23.955999 0.000000
vt -25.155811 21.737038 0.000000
vt -25.589642 19.556044 0.000000
vt -26.304440 17.450333 0.000000
vt -27.287973 15.455940 0.000000
vt -28.523417 13.606987 0.000000
vt -29.989630 11.935111 0.000000
vt 8.901006 -26.955999 0.000000
vt 12.121829 -23.517202 0.000000
vt 15.110846 -19.875114 0.000000
vt 17.855257 -16.045332 0.000000
vt 20.343311 -12.044254 0.000000
vt 22.564352 -7.889016 0.000000
vt 24.508871 -3.597411 0.000000
vt 26.168539 0.812185 0.000000
vt 27.536251 5.320887 0.000000
vt 28.606148 9.909389 0.000000
vt 29.373650 14.558042 0.000000
vt 29.835468 19.246939 0.000000
vt 29.989630 23.955999 0.000000
vn 0.000000 0.000000 0.100000
vn 0.000000 0.000000 0.100000
vn 0.000000 0.000000 0.100000
vn 0.000000 0.000000 0.100000
vn 0.069895 0.000000 0.071517
vn 0.065213 0.000000 0.075811
vn 0.060268 0.000000 0.079799
vn 0.055079 0.000000 0.083464
vn 0.049669 0.000000 0.086793
vn 0.044058 0.000000 0.089772
vn 0.038269 0.000000 0.092388
vn 0.032325 0.000000 0.094631
vn 0.026252 0.000000 0.096493
vn 0.020072 0.000000 0.097965
vn 0.013811 0.000000 0.099042
vn 0.007495 0.000000 0.099719
vn 0.001148 0.000000 0.099993
vn 0.001148 0.000000 0.099993
vn 0.007495 0.000000 0.099719
vn 0.013811 0.000000 0.099042
vn 0.020072 0.000000 0.097965
vn 0.026252 0.000000 0.096493
vn 0.032325 0.000000 0.094631
vn 0.038269 0.000000 0.092388
vn 0.044058 0.000000 0.089772
vn 0.049669 0.000000 0.086793
vn 0.055079 0.000000 0.083464
vn 0.060268 0.000000 0.079799
vn 0.065213 0.000000 0.075811
vn 0.069895 0.000000 0.071517
vn 0.000000 0.100000 0.000000
vn 0.000000 0.100000 0.000000
vn 0.000000 0.100000 0.000000
vn 0.000000 0.100000 0.000000
vn 0.000000 0.100000 0.000000
vn 0.000000 0.100000 0.000000
vn 0.000000 0.100000 0.000000
vn 0.000000 0.100000 0.000000
vn 0.000000 0.100000 0.000000
vn 0.000000 0.100000 0.000000
vn 0.000000 0.100000 0.000000
vn 0.000000 0.100000 0.000000
vn 0.000000 0.100000 0.000000
vn 0.000000 0.100000 0.000000
vn 0.000000 0.100000 0.000000
vn 0.000000 0.100000 0.000000
vn 0.000000 0.100000 0.000000
vn 0.000000 0.100000 0.000000
vn 0.000000 0.100000 0.000000
vn 0.000000 0.100000 0.000000
vn 0.000000 0.100000 0.000000
vn 0.000000 0.100000 0.000000
vn 0.000000 0.100000 0.000000
vn 0.000000 0.100000 0.000000
vn 0.000000 0.100000 0.000000
vn 0.000000 0.100000 0.000000
vn 0.000000 0.100000 0.000000
vn 0.000000 0.100000 0.000000
vn 0.004923 0.000000 -0.099879
vn -0.007694 0.000000 -0.099704
vn -0.020190 0.000000 -0.097941
vn -0.032363 0.000000 -0.094618
vn -0.044022 0.000000 -0.089789
vn -0.054979 0.000000 -0.083530
vn -0.065061 0.000000 -0.075941
vn -0.074107 0.000000 -0.067143
vn -0.074107 0.000000 -0.067143
vn -0.065061 0.000000 -0.075941
vn -0.054979 0.000000 -0.083530
vn -0.044022 0.000000 -0.089789
vn -0.032363 0.000000 -0.094618
vn -0.020190 0.000000 -0.097941
vn -0.007694 0.000000 -0.099704
vn 0.004923 0.000000 -0.099879
vn 0.000000 0.000000 -0.100000
vn 0.000000 0.000000 -0.100000
vn 0.000000 0.000000 -0.100000
vn 0.000000 0.000000 -0.100000
vn 0.000000 0.100000 0.000000
vn 0.000000 0.100000 0.000000
vn 0.000000 0.100000 0.000000
vn 0.000000 0.100000 0.000000
vn 0.000000 0.100000 0.000000
vn 0.000000 0.100000 0.000000
vn 0.000000 0.100000 0.000000
vn 0.000000 0.100000 0.000000
vn 0.000000 0.100000 0.000000
vn 0.000000 0.100000 0.000000
vn 0.000000 0.100000 0.000000
vn 0.000000 0.100000 0.000000
vn 0.000000 0.100000 0.000000
vn 0.000000 0.100000 0.000000
vn 0.000000 0.100000 0.000000
vn 0.000000 0.100000 0.000000
vn 0.000000 0.100000 0.000000
vn -0.070710 0.000000 0.070711
vn -0.070710 0.000000 0.070711
vn -0.070710 0.000000 0.070711
vn -0.070710 0.000000 0.070711
vn -0.070710 0.000000 0.070711
vn -0.070710 0.000000 0.070711
vn -0.070710 0.000000 0.070711
vn -0.070710 0.000000 0.070711
vn 0.000000 0.100000 0.000000
vn 0.000000 0.100000 0.000000
vn 0.000000 0.100000 0.000000
vn 0.000000 0.100000 0.000000
vn 0.000000 0.100000 0.000000
vn 0.000000 0.100000 0.000000
vn 0.000000 0.100000 0.000000
vn 0.000000 0.100000 0.000000
vn 0.000000 0.100000 0.000000
vn 0.000000 0.100000 0.000000
vn 0.000000 0.100000 0.000000
vn 0.000000 0.100000 0.000000
vn 0.000000 0.100000 0.000000
vn 0.000000 0.100000 0.000000
vn 0.000000 0.100000 0.000000
vn 0.000000 0.100000 0.000000
vn 0.000000 0.100000 0.000000
vn 0.000000 0.100000 0.000000
vn 0.000000 0.100000 0.000000
vn 0.000000 0.100000 0.000000
vn 0.000000 0.100000 0.000000
vn 0.000000 0.100000 0.000000
vn 0.000000 0.100000 0.000000
vn 0.000000 0.000000 0.100000
vn 0.000000 0.000000 0.100000
vn 0.000000 0.000000 0.100000
vn 0.000000 0.000000 0.100000
vn 0.070711 0.000000 0.070710
vn 0.060877 0.000000 0.079335
vn 0.050000 0.000000 0.086602
vn 0.038269 0.000000 0.092388
vn 0.025882 0.000000 0.096593
vn 0.013053 0.000000 0.099144
vn 0.000000 0.000000 0.100000
vn 0.000000 0.000000 0.100000
vn 0.013053 0.000000 0.099144
vn 0.025882 0.000000 0.096593
vn 0.038269 0.000000 0.092388
vn 0.050000 0.000000 0.086602
vn 0.060877 0.000000 0.079335
vn 0.070711 0.000000 0.070710
vn 0.000000 0.000000 -0.100000
vn -0.006540 0.000000 -0.099786
vn -0.013053 0.000000 -0.099144
vn -0.019509 0.000000 -0.098078
vn -0.025882 0.000000 -0.096593
vn -0.032144 0.000000 -0.094693
vn -0.038269 0.000000 -0.092388
vn -0.044229 0.000000 -0.089687
vn -0.050000 0.000000 -0.086602
vn -0.055557 0.000000 -0.083147
vn -0.060877 0.000000 -0.079335
vn -0.065935 0.000000 -0.075184
vn -0.070711 0.000000 -0.070710
vn -0.070711 0.000000 -0.070710
vn -0.065935 0.000000 -0.075184
vn -0.060877 0.000000 -0.079335
vn -0.055557 0.000000 -0.083147
vn -0.050000 0.000000 -0.086602
vn -0.044229 0.000000 -0.089687
vn -0.038269 0.000000 -0.092388
vn -0.032144 0.000000 -0.094693
vn -0.025882 0.000000 -0.096593
vn -0.019509 0.000000 -0.098078
vn -0.013053 0.000000 -0.099144
vn -0.006540 0.000000 -0.099786
vn 0.000000 0.000000 -0.100000
vn 0.000000 0.000000 -0.100000
vn 0.000000 0.000000 -0.100000
vn 0.000000 0.000000 -0.100000
vn 0.000000 0.000000 -0.100000
vn 0.100000 0.000000 0.000000
vn 0.100000 0.000000 0.000000
vn 0.100000 0.000000 0.000000
vn 0.100000 0.000000 0.000000
vn 0.100000 0.000000 0.000000
vn 0.100000 0.000000 0.000000
vn 0.100000 0.000000 0.000000
vn 0.100000 0.000000 0.000000
vn 0.000000 -0.100000 0.000000
vn 0.000000 -0.100000 0.000000
vn 0.000000 -0.100000 0.000000
vn 0.000000 -0.100000 0.000000
vn 0.000000 -0.100000 0.000000
vn 0.000000 -0.100000 0.000000
vn 0.000000 -0.100000 0.000000
vn 0.000000 -0.100000 0.000000
vn 0.000000 -0.100000 0.000000
vn 0.000000 -0.100000 0.000000
vn 0.000000 -0.100000 0.000000
vn 0.000000 -0.100000 0.000000
vn 0.000000 -0.100000 0.000000
vn 0.000000 -0.100000 0.000000
vn 0.000000 -0.100000 0.000000
vn 0.000000 -0.100000 0.000000
vn 0.000000 -0.100000 0.000000
vn 0.000000 -0.100000 0.000000
vn 0.000000 -0.100000 0.000000
vn 0.000000 -0.100000 0.000000
vn 0.000000 -0.100000 0.000000
vn 0.000000 -0.100000 0.000000
usemtl 191,191,191
f 77/1/1 85/2/2 80/4/4
f 80/4/4 85/2/2 88/3/3
f 3/5/5 7/6/6 4/30/30
f 4/30/30 7/6/6 8/29/29
f 8/29/29 7/6/6 11/7/7
f 8/29/29 11/7/7 12/28/28
f 12/28/28 11/7/7 15/8/8
f 12/28/28 15/8/8 16/27/27
f 16/27/27 15/8/8 19/9/9
f 16/27/27 19/9/9 20/26/26
f 20/26/26 19/9/9 23/10/10
f 20/26/26 23/10/10 24/25/25
f 24/25/25 23/10/10 27/11/11
f 24/25/25 27/11/11 28/24/24
f 28/24/24 27/11/11 31/12/12
f 28/24/24 31/12/12 32/23/23
f 32/23/23 31/12/12 35/13/13
f 32/23/23 35/13/13 36/22/22
f 36/22/22 35/13/13 39/14/14
f 36/22/22 39/14/14 40/21/21
f 40/21/21 39/14/14 53/15/15
f 40/21/21 53/15/15 54/20/20
f 54/20/20 53/15/15 65/16/16
f 54/20/20 65/16/16 66/19/19
f 66/19/19 65/16/16 80/18/18
f 80/18/18 65/16/16 77/17/17
usemtl 0,0,0
f 87/58/58 79/31/31 80/56/56
f 80/56/56 79/31/31 64/32/32
f 80/56/56 64/32/32 66/55/55
f 66/55/55 64/32/32 52/33/33
f 66/55/55 52/33/33 54/54/54
f 54/54/54 52/33/33 38/34/34
f 54/54/54 38/34/34 40/53/53
f 40/53/53 38/34/34 34/35/35
f 40/53/53 34/35/35 36/52/52
f 36/52/52 34/35/35 30/36/36
f 36/52/52 30/36/36 32/51/51
f 32/51/51 30/36/36 26/37/37
f 32/51/51 26/37/37 28/50/50
f 28/50/50 26/37/37 22/38/38
f 28/50/50 22/38/38 24/49/49
f 24/49/49 22/38/38 18/39/39
f 24/49/49 18/39/39 20/48/48
f 20/48/48 18/39/39 14/40/40
f 20/48/48 14/40/40 16/47/47
f 16/47/47 14/40/40 10/41/41
f 16/47/47 10/41/41 12/46/46
f 12/46/46 10/41/41 6/42/42
f 12/46/46 6/42/42 8/45/45
f 8/45/45 6/42/42 2/43/43
f 8/45/45 2/43/43 4/44/44
f 80/56/56 88/57/57 87/58/58
usemtl 191,191,191
f 81/74/74 78/59/59 74/73/73
f 74/73/73 78/59/59 73/60/60
f 74/73/73 73/60/60 69/61/61
f 74/73/73 69/61/61 70/72/72
f 70/72/72 69/61/61 61/62/62
f 70/72/72 61/62/62 62/71/71
f 62/71/71 61/62/62 57/63/63
f 62/71/71 57/63/63 58/70/70
f 58/70/70 57/63/63 49/64/64
f 58/70/70 49/64/64 50/69/69
f 50/69/69 49/64/64 45/65/65
f 50/69/69 45/65/65 46/68/68
f 46/68/68 45/65/65 41/66/66
f 46/68/68 41/66/66 42/67/67
f 86/75/75 78/76/76 89/78/78
f 89/78/78 78/76/76 81/77/77
usemtl 0,0,0
f 90/79/79 89/80/80 82/95/95
f 82/95/95 89/80/80 81/81/81
f 82/95/95 81/81/81 74/82/82
f 82/95/95 74/82/82 72/94/94
f 72/94/94 74/82/82 70/83/83
f 72/94/94 70/83/83 62/84/84
f 72/94/94 62/84/84 68/93/93
f 68/93/93 62/84/84 58/85/85
f 68/93/93 58/85/85 60/92/92
f 60/92/92 58/85/85 50/86/86
f 60/92/92 50/86/86 56/91/91
f 56/91/91 50/86/86 46/87/87
f 56/91/91 46/87/87 48/90/90
f 48/90/90 46/87/87 42/88/88
f 48/90/90 42/88/88 44/89/89
usemtl 191,191,191
f 2/103/103 1/96/96 3/101/101
f 3/101/101 1/96/96 43/97/97
f 3/101/101 43/97/97 41/100/100
f 41/100/100 43/97/97 44/98/98
f 41/100/100 44/98/98 42/99/99
f 3/101/101 4/102/102 2/103/103
usemtl 255,255,255
f 86/126/126 85/104/104 78/125/125
f 78/125/125 85/104/104 77/105/105
f 78/125/125 77/105/105 65/106/106
f 78/125/125 65/106/106 73/124/124
f 73/124/124 65/106/106 53/107/107
f 73/124/124 53/107/107 69/123/123
f 69/123/123 53/107/107 39/108/108
f 69/123/123 39/108/108 35/109/109
f 69/123/123 35/109/109 61/122/122
f 61/122/122 35/109/109 31/110/110
f 61/122/122 31/110/110 57/121/121
f 57/121/121 31/110/110 27/111/111
f 57/121/121 27/111/111 23/112/112
f 57/121/121 23/112/112 49/120/120
f 49/120/120 23/112/112 19/113/113
f 49/120/120 19/113/113 45/119/119
f 45/119/119 19/113/113 15/114/114
f 45/119/119 15/114/114 11/115/115
f 45/119/119 11/115/115 41/118/118
f 41/118/118 11/115/115 7/116/116
f 41/118/118 7/116/116 3/117/117
usemtl 191,191,191
f 76/127/127 84/128/128 82/130/130
f 82/130/130 84/128/128 90/129/129
f 43/131/131 47/132/132 44/144/144
f 44/144/144 47/132/132 48/143/143
f 48/143/143 47/132/132 55/133/133
f 48/143/143 55/133/133 56/142/142
f 56/142/142 55/133/133 59/134/134
f 56/142/142 59/134/134 60/141/141
f 60/141/141 59/134/134 67/135/135
f 60/141/141 67/135/135 68/140/140
f 68/140/140 67/135/135 71/136/136
f 68/140/140 71/136/136 72/139/139
f 72/139/139 71/136/136 82/138/138
f 82/138/138 71/136/136 76/137/137
f 79/170/170 75/145/145 64/169/169
f 64/169/169 75/145/145 63/146/146
f 64/169/169 63/146/146 51/147/147
f 64/169/169 51/147/147 52/168/168
f 52/168/168 51/147/147 37/148/148
f 52/168/168 37/148/148 38/167/167
f 38/167/167 37/148/148 33/149/149
f 38/167/167 33/149/149 34/166/166
f 34/166/166 33/149/149 29/150/150
f 34/166/166 29/150/150 30/165/165
f 30/165/165 29/150/150 25/151/151
f 30/165/165 25/151/151 26/164/164
f 26/164/164 25/151/151 21/152/152
f 26/164/164 21/152/152 22/163/163
f 22/163/163 21/152/152 17/153/153
f 22/163/163 17/153/153 18/162/162
f 18/162/162 17/153/153 13/154/154
f 18/162/162 13/154/154 14/161/161
f 14/161/161 13/154/154 9/155/155
f 14/161/161 9/155/155 10/160/160
f 10/160/160 9/155/155 5/156/156
f 10/160/160 5/156/156 6/159/159
f 6/159/159 5/156/156 1/157/157
f 6/159/159 1/157/157 2/158/158
f 83/171/171 75/172/172 87/174/174
f 87/174/174 75/172/172 79/173/173
f 86/176/176 83/180/180 85/175/175
f 85/175/175 83/180/180 87/181/181
f 85/175/175 87/181/181 88/182/182
f 89/177/177 90/178/178 86/176/176
f 86/176/176 90/178/178 84/179/179
f 86/176/176 84/179/179 83/180/180
f 83/183/183 84/184/184 75/204/204
f 75/204/204 84/184/184 76/185/185
f 75/204/204 76/185/185 63/203/203
f 63/203/203 76/185/185 71/186/186
f 63/203/203 71/186/186 51/202/202
f 51/202/202 71/186/186 67/187/187
f 51/202/202 67/187/187 37/201/201
f 37/201/201 67/187/187 33/200/200
f 33/200/200 67/187/187 59/188/188
f 33/200/200 59/188/188 29/199/199
f 29/199/199 59/188/188 25/198/198
f 25/198/198 59/188/188 55/189/189
f 25/198/198 55/189/189 21/197/197
f 21/197/197 55/189/189 47/190/190
f 21/197/197 47/190/190 17/196/196
f 17/196/196 47/190/190 13/195/195
f 13/195/195 47/190/190 43/191/191
f 13/195/195 43/191/191 9/194/194
f 9/194/194 43/191/191 5/193/193
f 5/193/193 43/191/191 1/192/192

# 90 vertices
# 204 texture params
# 204 normals
# 176 facets

# 1 groups
