# WaveFront *.obj file (generated by Autodesk ATF)

mtllib intersection_extension.mtl

g Solid1

v -170.000000 0.000000 -275.000000
v -170.000000 0.000000 275.000000
v -170.000000 3.000000 -255.000000
v -170.000000 3.000000 255.000000
v -170.000000 3.100000 -275.000000
v -170.000000 3.100000 -255.000000
v -170.000000 3.100000 255.000000
v -170.000000 3.100000 275.000000
v 0.000000 0.000000 -275.000000
v 0.000000 0.000000 275.000000
v 0.000000 3.000000 -255.000000
v 0.000000 3.000000 255.000000
v 0.000000 3.100000 -275.000000
v 0.000000 3.100000 -255.000000
v 0.000000 3.100000 255.000000
v 0.000000 3.100000 275.000000
vt 0.000000 0.300000 0.000000
vt 17.000000 0.300000 0.000000
vt 17.000000 0.310000 0.000000
vt 0.000000 0.310000 0.000000
vt -1.000000 -8.500000 0.000000
vt 1.000000 -8.500000 0.000000
vt 1.000000 8.500000 0.000000
vt -1.000000 8.500000 0.000000
vt 0.000000 0.300000 0.000000
vt 17.000000 0.300000 0.000000
vt 17.000000 0.310000 0.000000
vt 0.000000 0.310000 0.000000
vt 1.000000 8.500000 0.000000
vt -1.000000 8.500000 0.000000
vt -1.000000 -8.500000 0.000000
vt 1.000000 -8.500000 0.000000
vt -25.500000 8.500000 0.000000
vt -25.500000 -8.500000 0.000000
vt 25.500000 -8.500000 0.000000
vt 25.500000 8.500000 0.000000
vt 53.000000 0.300000 0.000000
vt 2.000000 0.300000 0.000000
vt 2.000000 0.310000 0.000000
vt 0.000000 0.310000 0.000000
vt 0.000000 0.000000 0.000000
vt 55.000000 0.000000 0.000000
vt 55.000000 0.310000 0.000000
vt 53.000000 0.310000 0.000000
vt 0.000000 0.000000 0.000000
vt 17.000000 0.000000 0.000000
vt 17.000000 0.310000 0.000000
vt 0.000000 0.310000 0.000000
vt 0.000000 0.000000 0.000000
vt 55.000000 0.000000 0.000000
vt 55.000000 0.310000 0.000000
vt 53.000000 0.310000 0.000000
vt 53.000000 0.300000 0.000000
vt 2.000000 0.300000 0.000000
vt 2.000000 0.310000 0.000000
vt 0.000000 0.310000 0.000000
vt 0.000000 0.000000 0.000000
vt 17.000000 0.000000 0.000000
vt 17.000000 0.310000 0.000000
vt 0.000000 0.310000 0.000000
vt 27.500000 8.500000 0.000000
vt -27.500000 8.500000 0.000000
vt -27.500000 -8.500000 0.000000
vt 27.500000 -8.500000 0.000000
vn 0.000000 0.000000 0.100000
vn 0.000000 0.000000 0.100000
vn 0.000000 0.000000 0.100000
vn 0.000000 0.000000 0.100000
vn 0.000000 0.100000 0.000000
vn 0.000000 0.100000 0.000000
vn 0.000000 0.100000 0.000000
vn 0.000000 0.100000 0.000000
vn 0.000000 0.000000 -0.100000
vn 0.000000 0.000000 -0.100000
vn 0.000000 0.000000 -0.100000
vn 0.000000 0.000000 -0.100000
vn 0.000000 0.100000 0.000000
vn 0.000000 0.100000 0.000000
vn 0.000000 0.100000 0.000000
vn 0.000000 0.100000 0.000000
vn 0.000000 0.100000 0.000000
vn 0.000000 0.100000 0.000000
vn 0.000000 0.100000 0.000000
vn 0.000000 0.100000 0.000000
vn 0.100000 0.000000 0.000000
vn 0.100000 0.000000 0.000000
vn 0.100000 0.000000 0.000000
vn 0.100000 0.000000 0.000000
vn 0.100000 0.000000 0.000000
vn 0.100000 0.000000 0.000000
vn 0.100000 0.000000 0.000000
vn 0.100000 0.000000 0.000000
vn 0.000000 0.000000 0.100000
vn 0.000000 0.000000 0.100000
vn 0.000000 0.000000 0.100000
vn 0.000000 0.000000 0.100000
vn -0.100000 0.000000 0.000000
vn -0.100000 0.000000 0.000000
vn -0.100000 0.000000 0.000000
vn -0.100000 0.000000 0.000000
vn -0.100000 0.000000 0.000000
vn -0.100000 0.000000 0.000000
vn -0.100000 0.000000 0.000000
vn -0.100000 0.000000 0.000000
vn 0.000000 0.000000 -0.100000
vn 0.000000 0.000000 -0.100000
vn 0.000000 0.000000 -0.100000
vn 0.000000 0.000000 -0.100000
vn 0.000000 -0.100000 0.000000
vn 0.000000 -0.100000 0.000000
vn 0.000000 -0.100000 0.000000
vn 0.000000 -0.100000 0.000000
usemtl 191,191,191
f 3/1/1 11/2/2 6/4/4
f 6/4/4 11/2/2 14/3/3
usemtl 0,0,0
f 5/5/5 6/6/6 13/8/8
f 13/8/8 6/6/6 14/7/7
usemtl 191,191,191
f 12/9/9 4/10/10 15/12/12
f 15/12/12 4/10/10 7/11/11
usemtl 0,0,0
f 16/13/13 15/14/14 8/16/16
f 8/16/16 15/14/14 7/15/15
usemtl 255,255,255
f 3/18/18 4/19/19 11/17/17
f 11/17/17 4/19/19 12/20/20
usemtl 191,191,191
f 12/22/22 9/26/26 11/21/21
f 11/21/21 9/26/26 13/27/27
f 11/21/21 13/27/27 14/28/28
f 15/23/23 16/24/24 12/22/22
f 12/22/22 16/24/24 10/25/25
f 12/22/22 10/25/25 9/26/26
f 2/29/29 10/30/30 8/32/32
f 8/32/32 10/30/30 16/31/31
f 5/40/40 1/33/33 3/38/38
f 3/38/38 1/33/33 2/34/34
f 3/38/38 2/34/34 4/37/37
f 4/37/37 2/34/34 8/35/35
f 4/37/37 8/35/35 7/36/36
f 3/38/38 6/39/39 5/40/40
f 9/41/41 1/42/42 13/44/44
f 13/44/44 1/42/42 5/43/43
f 9/45/45 10/46/46 1/48/48
f 1/48/48 10/46/46 2/47/47

# 16 vertices
# 48 texture params
# 48 normals
# 28 facets

# 1 groups
