# WaveFront *.obj file (generated by Autodesk ATF)

mtllib straight.mtl

g Solid1

v -275.000000 0.000000 -720.000000
v -275.000000 0.000000 0.000000
v -275.000000 3.100000 -720.000000
v -275.000000 3.100000 0.000000
v -255.000000 3.000000 -720.000000
v -255.000000 3.000000 0.000000
v -255.000000 3.100000 -720.000000
v -255.000000 3.100000 0.000000
v 255.000000 3.000000 -720.000000
v 255.000000 3.000000 0.000000
v 255.000000 3.100000 -720.000000
v 255.000000 3.100000 0.000000
v 275.000000 0.000000 -720.000000
v 275.000000 0.000000 0.000000
v 275.000000 3.100000 -720.000000
v 275.000000 3.100000 0.000000
vt 0.000000 0.300000 0.000000
vt 72.000000 0.300000 0.000000
vt 72.000000 0.310000 0.000000
vt 0.000000 0.310000 0.000000
vt 36.000000 -1.000000 0.000000
vt 36.000000 1.000000 0.000000
vt -36.000000 1.000000 0.000000
vt -36.000000 -1.000000 0.000000
vt 0.000000 0.300000 0.000000
vt 72.000000 0.300000 0.000000
vt 72.000000 0.310000 0.000000
vt 0.000000 0.310000 0.000000
vt -36.000000 1.000000 0.000000
vt -36.000000 -1.000000 0.000000
vt 36.000000 -1.000000 0.000000
vt 36.000000 1.000000 0.000000
vt -36.000000 -25.500000 0.000000
vt 36.000000 -25.500000 0.000000
vt 36.000000 25.500000 0.000000
vt -36.000000 25.500000 0.000000
vt 53.000000 0.300000 0.000000
vt 2.000000 0.300000 0.000000
vt 2.000000 0.310000 0.000000
vt 0.000000 0.310000 0.000000
vt 0.000000 0.000000 0.000000
vt 55.000000 0.000000 0.000000
vt 55.000000 0.310000 0.000000
vt 53.000000 0.310000 0.000000
vt 0.000000 0.000000 0.000000
vt 55.000000 0.000000 0.000000
vt 55.000000 0.310000 0.000000
vt 53.000000 0.310000 0.000000
vt 53.000000 0.300000 0.000000
vt 2.000000 0.300000 0.000000
vt 2.000000 0.310000 0.000000
vt 0.000000 0.310000 0.000000
vt 0.000000 0.000000 0.000000
vt 72.000000 0.000000 0.000000
vt 72.000000 0.310000 0.000000
vt 0.000000 0.310000 0.000000
vt 0.000000 0.000000 0.000000
vt 72.000000 0.000000 0.000000
vt 72.000000 0.310000 0.000000
vt 0.000000 0.310000 0.000000
vt 36.000000 -27.500000 0.000000
vt 36.000000 27.500000 0.000000
vt -36.000000 27.500000 0.000000
vt -36.000000 -27.500000 0.000000
vn 0.100000 0.000000 0.000000
vn 0.100000 0.000000 0.000000
vn 0.100000 0.000000 0.000000
vn 0.100000 0.000000 0.000000
vn 0.000000 0.100000 0.000000
vn 0.000000 0.100000 0.000000
vn 0.000000 0.100000 0.000000
vn 0.000000 0.100000 0.000000
vn -0.100000 0.000000 0.000000
vn -0.100000 0.000000 0.000000
vn -0.100000 0.000000 0.000000
vn -0.100000 0.000000 0.000000
vn 0.000000 0.100000 0.000000
vn 0.000000 0.100000 0.000000
vn 0.000000 0.100000 0.000000
vn 0.000000 0.100000 0.000000
vn 0.000000 0.100000 0.000000
vn 0.000000 0.100000 0.000000
vn 0.000000 0.100000 0.000000
vn 0.000000 0.100000 0.000000
vn 0.000000 0.000000 -0.100000
vn 0.000000 0.000000 -0.100000
vn 0.000000 0.000000 -0.100000
vn 0.000000 0.000000 -0.100000
vn 0.000000 0.000000 -0.100000
vn 0.000000 0.000000 -0.100000
vn 0.000000 0.000000 -0.100000
vn 0.000000 0.000000 -0.100000
vn 0.000000 0.000000 0.100000
vn 0.000000 0.000000 0.100000
vn 0.000000 0.000000 0.100000
vn 0.000000 0.000000 0.100000
vn 0.000000 0.000000 0.100000
vn 0.000000 0.000000 0.100000
vn 0.000000 0.000000 0.100000
vn 0.000000 0.000000 0.100000
vn -0.100000 0.000000 0.000000
vn -0.100000 0.000000 0.000000
vn -0.100000 0.000000 0.000000
vn -0.100000 0.000000 0.000000
vn 0.100000 0.000000 0.000000
vn 0.100000 0.000000 0.000000
vn 0.100000 0.000000 0.000000
vn 0.100000 0.000000 0.000000
vn 0.000000 -0.100000 0.000000
vn 0.000000 -0.100000 0.000000
vn 0.000000 -0.100000 0.000000
vn 0.000000 -0.100000 0.000000
usemtl 191,191,191
f 6/1/1 5/2/2 8/4/4
f 8/4/4 5/2/2 7/3/3
usemtl 0,0,0
f 8/6/6 7/7/7 4/5/5
f 4/5/5 7/7/7 3/8/8
usemtl 191,191,191
f 9/9/9 10/10/10 11/12/12
f 11/12/12 10/10/10 12/11/11
usemtl 0,0,0
f 11/14/14 12/15/15 15/13/13
f 15/13/13 12/15/15 16/16/16
usemtl 255,255,255
f 5/17/17 6/18/18 9/20/20
f 9/20/20 6/18/18 10/19/19
usemtl 191,191,191
f 9/22/22 1/26/26 5/21/21
f 5/21/21 1/26/26 3/27/27
f 5/21/21 3/27/27 7/28/28
f 11/23/23 15/24/24 9/22/22
f 9/22/22 15/24/24 13/25/25
f 9/22/22 13/25/25 1/26/26
f 4/36/36 2/29/29 6/34/34
f 6/34/34 2/29/29 14/30/30
f 6/34/34 14/30/30 10/33/33
f 10/33/33 14/30/30 16/31/31
f 10/33/33 16/31/31 12/32/32
f 6/34/34 8/35/35 4/36/36
f 1/37/37 2/38/38 3/40/40
f 3/40/40 2/38/38 4/39/39
f 14/41/41 13/42/42 16/44/44
f 16/44/44 13/42/42 15/43/43
f 13/46/46 14/47/47 1/45/45
f 1/45/45 14/47/47 2/48/48

# 16 vertices
# 48 texture params
# 48 normals
# 28 facets

# 1 groups
