# WaveFront *.obj file (generated by Autodesk ATF)

mtllib rod.mtl

g Solid1

v -4.000000 0.000000 0.000000
v -4.000000 330.000000 0.000000
v -3.365014 0.000000 -2.162563
v -3.365014 0.000000 2.162563
v -3.365014 330.000000 -2.162563
v -3.365014 330.000000 2.162563
v -1.661660 0.000000 -3.638528
v -1.661660 0.000000 3.638528
v -1.661660 330.000000 -3.638528
v -1.661660 330.000000 3.638528
v 0.569259 0.000000 -3.959286
v 0.569259 0.000000 3.959286
v 0.569259 330.000000 -3.959286
v 0.569259 330.000000 3.959286
v 2.619443 0.000000 -3.022998
v 2.619443 0.000000 3.022998
v 2.619443 330.000000 -3.022998
v 2.619443 330.000000 3.022998
v 3.837972 0.000000 -1.126930
v 3.837972 0.000000 1.126930
v 3.837972 330.000000 -1.126930
v 3.837972 330.000000 1.126930
vt -33.000000 0.000000 0.000000
vt -33.000000 -0.228479 0.000000
vt -33.000000 -0.456959 0.000000
vt -33.000000 -0.685438 0.000000
vt -33.000000 -0.913918 0.000000
vt -33.000000 -1.142397 0.000000
vt -33.000000 1.142397 0.000000
vt -33.000000 0.913918 0.000000
vt -33.000000 0.685438 0.000000
vt -33.000000 0.456959 0.000000
vt -33.000000 0.228479 0.000000
vt -0.000000 0.000000 0.000000
vt -0.000000 0.228479 0.000000
vt -0.000000 0.456959 0.000000
vt -0.000000 0.685438 0.000000
vt -0.000000 0.913918 0.000000
vt -0.000000 -1.370877 0.000000
vt -0.000000 -1.142397 0.000000
vt -0.000000 -0.913918 0.000000
vt -0.000000 -0.685438 0.000000
vt -0.000000 -0.456959 0.000000
vt -0.000000 -0.228479 0.000000
vt -0.000000 1.142397 0.000000
vt -0.000000 1.142397 0.000000
vt -33.000000 -1.370877 0.000000
vt -33.000000 -1.370877 0.000000
vt 0.000000 -0.400000 0.000000
vt 0.216256 -0.336501 0.000000
vt 0.363853 -0.166166 0.000000
vt 0.395929 0.056926 0.000000
vt 0.302300 0.261944 0.000000
vt 0.112693 0.383797 0.000000
vt -0.112693 0.383797 0.000000
vt -0.302300 0.261944 0.000000
vt -0.395929 0.056926 0.000000
vt -0.363853 -0.166166 0.000000
vt -0.216256 -0.336501 0.000000
vt -0.000000 -0.400000 0.000000
vt 0.216256 -0.336501 0.000000
vt 0.363853 -0.166166 0.000000
vt 0.395929 0.056926 0.000000
vt 0.302300 0.261944 0.000000
vt 0.112693 0.383797 0.000000
vt -0.112693 0.383797 0.000000
vt -0.302300 0.261944 0.000000
vt -0.395929 0.056926 0.000000
vt -0.363853 -0.166166 0.000000
vt -0.216256 -0.336501 0.000000
vn -0.100000 0.000000 0.000000
vn -0.084125 0.000000 -0.054064
vn -0.041542 0.000000 -0.090963
vn 0.014231 0.000000 -0.098982
vn 0.065486 0.000000 -0.075575
vn 0.095949 0.000000 -0.028173
vn 0.095949 0.000000 0.028173
vn 0.065486 0.000000 0.075575
vn 0.014231 0.000000 0.098982
vn -0.041542 0.000000 0.090963
vn -0.084125 0.000000 0.054064
vn -0.100000 0.000000 0.000000
vn -0.084125 0.000000 0.054064
vn -0.041542 0.000000 0.090963
vn 0.014231 0.000000 0.098982
vn 0.065486 0.000000 0.075575
vn 0.095949 0.000000 0.028173
vn 0.095949 0.000000 -0.028173
vn 0.065486 0.000000 -0.075575
vn 0.014231 0.000000 -0.098982
vn -0.041542 0.000000 -0.090963
vn -0.084125 0.000000 -0.054064
vn 0.095949 0.000000 0.028173
vn 0.095949 0.000000 0.028173
vn 0.095949 0.000000 0.028173
vn 0.095949 0.000000 0.028173
vn 0.000000 0.100000 0.000000
vn 0.000000 0.100000 0.000000
vn 0.000000 0.100000 0.000000
vn 0.000000 0.100000 0.000000
vn 0.000000 0.100000 0.000000
vn 0.000000 0.100000 0.000000
vn 0.000000 0.100000 0.000000
vn 0.000000 0.100000 0.000000
vn 0.000000 0.100000 0.000000
vn 0.000000 0.100000 0.000000
vn 0.000000 0.100000 0.000000
vn 0.000000 -0.100000 0.000000
vn 0.000000 -0.100000 0.000000
vn 0.000000 -0.100000 0.000000
vn 0.000000 -0.100000 0.000000
vn 0.000000 -0.100000 0.000000
vn 0.000000 -0.100000 0.000000
vn 0.000000 -0.100000 0.000000
vn 0.000000 -0.100000 0.000000
vn 0.000000 -0.100000 0.000000
vn 0.000000 -0.100000 0.000000
vn 0.000000 -0.100000 0.000000
usemtl 191,191,191
f 5/2/2 1/12/12 2/1/1
f 2/1/1 1/12/12 4/13/13
f 2/1/1 4/13/13 6/11/11
f 6/11/11 4/13/13 8/14/14
f 6/11/11 8/14/14 10/10/10
f 10/10/10 8/14/14 12/15/15
f 10/10/10 12/15/15 14/9/9
f 14/9/9 12/15/15 16/16/16
f 14/9/9 16/16/16 18/8/8
f 18/8/8 16/16/16 20/23/23
f 18/8/8 20/24/24 22/7/7
f 22/25/25 20/17/17 19/18/18
f 22/26/26 19/18/18 21/6/6
f 21/6/6 19/18/18 15/19/19
f 21/6/6 15/19/19 17/5/5
f 17/5/5 15/19/19 11/20/20
f 17/5/5 11/20/20 13/4/4
f 13/4/4 11/20/20 7/21/21
f 13/4/4 7/21/21 9/3/3
f 9/3/3 7/21/21 3/22/22
f 9/3/3 3/22/22 5/2/2
f 5/2/2 3/22/22 1/12/12
f 6/28/28 22/32/32 2/27/27
f 2/27/27 22/32/32 21/33/33
f 2/27/27 21/33/33 5/37/37
f 5/37/37 21/33/33 17/34/34
f 5/37/37 17/34/34 9/36/36
f 9/36/36 17/34/34 13/35/35
f 22/32/32 6/28/28 18/31/31
f 18/31/31 6/28/28 10/29/29
f 18/31/31 10/29/29 14/30/30
f 3/39/39 19/43/43 1/38/38
f 1/38/38 19/43/43 20/44/44
f 1/38/38 20/44/44 4/48/48
f 4/48/48 20/44/44 16/45/45
f 4/48/48 16/45/45 8/47/47
f 8/47/47 16/45/45 12/46/46
f 19/43/43 3/39/39 15/42/42
f 15/42/42 3/39/39 7/40/40
f 15/42/42 7/40/40 11/41/41

# 22 vertices
# 48 texture params
# 48 normals
# 40 facets

# 1 groups
